<svg width="22" height="22" viewBox="0 0 22 22" fill="none" xmlns="http://www.w3.org/2000/svg">
<path d="M19.3437 16.1563H17.6961C17.5836 16.1563 17.4781 16.2055 17.4078 16.2922C17.2437 16.4914 17.0679 16.6836 16.8828 16.8664C16.1255 17.6245 15.2285 18.2286 14.2414 18.6453C13.2187 19.0773 12.1195 19.2989 11.0094 19.2969C9.88671 19.2969 8.79921 19.0766 7.77734 18.6453C6.79022 18.2286 5.89321 17.6245 5.13593 16.8664C4.3773 16.1109 3.77238 15.2155 3.35469 14.2297C2.92109 13.2078 2.70312 12.1227 2.70312 11C2.70312 9.87736 2.92344 8.7922 3.35469 7.77032C3.77187 6.7836 4.37187 5.89532 5.13593 5.1336C5.89999 4.37188 6.78827 3.77188 7.77734 3.35469C8.79921 2.92344 9.88671 2.70313 11.0094 2.70313C12.132 2.70313 13.2195 2.9211 14.2414 3.35469C15.2304 3.77188 16.1187 4.37188 16.8828 5.1336C17.0679 5.31876 17.2414 5.51095 17.4078 5.70782C17.4781 5.79454 17.5859 5.84376 17.6961 5.84376H19.3437C19.4914 5.84376 19.5828 5.6797 19.5008 5.55548C17.7031 2.76173 14.5578 0.912505 10.9836 0.92188C5.36796 0.935942 0.865628 5.49454 0.921878 11.1031C0.978127 16.6227 5.47343 21.0781 11.0094 21.0781C14.5742 21.0781 17.7054 19.2313 19.5008 16.4445C19.5804 16.3203 19.4914 16.1563 19.3437 16.1563ZM21.4273 10.8524L18.1015 8.22736C17.9773 8.12892 17.7969 8.21798 17.7969 8.37501V10.1563H10.4375C10.3344 10.1563 10.25 10.2406 10.25 10.3438V11.6563C10.25 11.7594 10.3344 11.8438 10.4375 11.8438H17.7969V13.625C17.7969 13.782 17.9797 13.8711 18.1015 13.7727L21.4273 11.1477C21.4497 11.1301 21.4678 11.1077 21.4803 11.0821C21.4928 11.0566 21.4993 11.0285 21.4993 11C21.4993 10.9716 21.4928 10.9435 21.4803 10.9179C21.4678 10.8923 21.4497 10.8699 21.4273 10.8524Z" fill="white"/>
</svg>
